<svg xmlns="http://www.w3.org/2000/svg" viewBox="0 0 48 48" fill="none" aria-hidden="true">
  <path d="M28 8c-6 0-10 4-12 9-1 3-1 7 1 10 2 3 6 5 10 4 4-1 7-4 8-8 1-3 0-6-2-8-2-2-5-3-8-2" stroke="currentColor" stroke-width="2.4" stroke-linecap="round"/>
  <path d="M16 17c-3 4-4 9-2 14 2 6 8 11 15 12 5 1 10-1 14-4" stroke="currentColor" stroke-width="2.4" stroke-linecap="round"/>
  <path d="M33 33c2 3 2 7-1 9-3 3-8 2-11-1" stroke="currentColor" stroke-width="2.4" stroke-linecap="round"/>
  <circle cx="26" cy="11" r="1.8" fill="currentColor"/>
</svg>
